<svg xmlns="http://www.w3.org/2000/svg" width="25" height="24" viewBox="0 0 25 24"><defs><linearGradient id="a" x1="118.068%" x2="-62.558%" y1="50%" y2="50%"><stop offset="0%" stop-color="#62DC8C"/><stop offset="40.724%" stop-color="#489AEC"/><stop offset="99.946%" stop-color="#804DFF"/><stop offset="100%" stop-color="#4D9CFF"/><stop offset="100%" stop-color="#5A4DFF"/></linearGradient></defs><g fill="none" fill-rule="evenodd" transform="translate(.1 -.001)"><g transform="translate(1 1.001)"><path fill="url(#a)" d="M11.0105008,3.58824082e-13 C11.5270521,0.00605418079 11.9154927,0.422603441 11.8959247,0.94931717 C11.8771135,1.4562467 11.5035922,1.81592991 11.0000141,1.8148488 L11.0000141,1.8148488 L11.0000141,3.49034334 C11.0893132,3.49066767 11.1794773,3.49791106 11.2695332,3.51520872 C11.3575351,3.53218205 11.4438071,3.55975019 11.5301873,3.58504802 C12.5890203,3.8954329 13.135302,3.48969467 13.1223288,2.40188812 C13.1129232,1.6042498 13.4475247,1.05948164 14.0933761,0.820882049 C14.7022537,0.595904366 15.3961061,0.780773101 15.8080066,1.27775648 C16.2199071,1.77473985 16.2662865,2.48794397 15.9229279,3.04427994 C15.5327576,3.67629317 14.8692842,3.87370271 13.9701303,3.62526508 C13.0784359,3.37898965 12.5202621,3.79716057 12.5115052,4.71847715 C12.5103159,4.84442574 12.5180999,4.97091487 12.5099916,5.0963229 C12.4547472,5.942719 11.7922469,6.53083942 11.0000141,6.52251492 L11.0000141,6.52251492 C9.77761009,6.52662311 8.67023555,7.01755231 7.86297541,7.81227165 C7.84740752,7.82859631 7.83140718,7.84438043 7.81508252,7.86005643 C7.04295825,8.64353229 6.55862378,9.71025733 6.53040698,10.890282 C6.53473139,10.9542834 6.5337584,11.0191496 6.52975831,11.0843401 C6.55192094,12.2611215 7.02803901,13.3262249 7.79086579,14.1125116 C7.82146103,14.1407285 7.85075894,14.1701345 7.87886764,14.2007297 C8.68472234,14.986584 9.78550214,15.4713509 11.0000141,15.4713509 L11.0000141,15.4713509 C11.5027273,15.4681076 11.9700884,15.7077883 12.2564728,16.1341756 C12.6069666,16.6563487 12.6026422,17.3505254 12.2457699,17.8628604 C11.9610071,18.2717338 11.4913757,18.5064415 11.0000141,18.5039549 L11.0000141,18.5039549 L11.0000141,20.182909 L11.0000141,20.182909 L11.0187171,20.1823684 C11.5284575,20.1919903 11.9006816,20.5685387 11.9025194,21.0765493 C11.9044654,21.5919115 11.5028354,21.9990551 11.0000141,21.9972172 L11.0000141,21.9972172 C4.92583285,21.9990551 0.00162165557,17.0758169 -4.01456646e-13,11.0020682 L-4.01456646e-13,11.0020682 C-4.01456646e-13,4.952428 4.87869672,0.0461631285 10.9143906,3.58824082e-13 L10.9143906,3.58824082e-13 Z M14.4326697,13.9231996 C15.1250085,13.5022178 16.0144325,13.708168 16.4794152,14.3971554 C16.925803,15.0583585 16.7480695,15.9991349 16.0880557,16.4606581 C16.0144325,16.5120105 15.934539,16.5544979 15.8562671,16.598715 C14.8954902,17.1415372 14.8055424,17.8159297 15.5944237,18.5651346 C16.1728142,19.1144434 16.3300067,19.7340239 16.0507576,20.3634425 C15.787617,20.9568603 15.1712798,21.3253005 14.5278068,21.2740562 C13.884442,21.2229199 13.3407549,20.7589102 13.1812921,20.124951 C13.0002073,19.4046116 13.3212951,18.7913015 14.1262849,18.3199403 C14.9244638,17.852471 15.0138711,17.1607809 14.3595871,16.5120105 C14.2700717,16.42336 14.1739616,16.3407637 14.0897436,16.2474644 C13.4288649,15.5152329 13.5889764,14.4362914 14.4326697,13.9231996 Z M18.1442609,17.2241552 C18.6678394,17.2310742 19.033793,17.6280555 19.0146575,18.1684993 C18.9962787,18.6896994 18.6402713,19.0217063 18.1097737,19.0124088 C17.5947359,19.0035438 17.2307283,18.6408335 17.2275931,18.1337958 C17.2242416,17.6119471 17.6219797,17.2173442 18.1442609,17.2241552 Z M17.0047452,9.48678239 C17.9976308,9.4929771 18.7014293,10.4048881 18.4592621,11.3749624 C18.4201261,11.5319387 18.3558005,11.6828608 18.3212052,11.8405938 C18.1791481,12.4867695 18.5647778,13.0391054 19.2215483,13.1210531 C19.4167957,13.1453779 19.6171242,13.124945 19.8147499,13.1338101 C20.7099038,13.1738109 21.3219166,13.8495007 21.2659154,14.7324381 C21.2114278,15.5914831 20.4521687,16.2405778 19.61107,16.1471705 C18.7524574,16.0518171 18.1538503,15.2995851 18.2641229,14.4355671 C18.2911505,14.2233464 18.3734225,14.0186935 18.4208829,13.8083107 C18.5793727,13.1045122 18.1595801,12.549906 17.438484,12.5115268 C17.2410744,12.5010401 17.0415027,12.5197432 16.844958,12.5021212 C16.0237517,12.4286061 15.4241715,11.7335645 15.4697941,10.9186286 C15.5155248,10.1000168 16.1785657,9.48162551 17.0047452,9.48678239 Z M21.0645058,10.0956276 C21.5832194,10.0854652 22.0029038,10.4921764 22,11.0022411 C21.997174,11.5136032 21.5761922,11.9141521 21.055857,11.9005302 C20.5516302,11.8873407 20.1822171,11.5030084 20.185012,10.9943491 C20.1877307,10.4855817 20.5597385,10.1055737 21.0645058,10.0956276 Z M14.4495025,5.42608116 C15.1241112,5.00034251 16.0590497,5.20683332 16.4999238,5.88068527 C16.5490059,5.95582197 16.5891148,6.03701286 16.6309536,6.11669021 C17.1438292,7.09368363 17.8151946,7.20428054 18.5882918,6.43885911 C19.1551145,5.87765818 19.7793438,5.73938501 20.3998973,6.03787775 C20.9847744,6.31928904 21.3341871,6.94654542 21.2631586,7.58818047 C21.1922382,8.22981552 20.7117957,8.75890768 20.0731878,8.89869439 C19.3476591,9.05761664 18.7445113,8.71771763 18.2981236,7.89878157 C17.8553035,7.08644024 17.1667486,6.97595144 16.498194,7.61001877 C16.4068408,7.69672328 16.3213254,7.79023875 16.2255397,7.87153775 C15.4733077,8.50960516 14.3997717,8.31641193 13.9128426,7.45725881 C13.5133748,6.7524873 13.7465688,5.86976612 14.4495025,5.42608116 Z M18.1591261,2.98358678 C18.6820559,2.99807357 19.0188198,3.34986472 19.0154683,3.87798388 C19.012225,4.39421091 18.652758,4.76448893 18.1486394,4.77108366 C17.6221419,4.77789461 17.2269985,4.38956216 17.2274305,3.86587552 C17.2279715,3.33937801 17.619331,2.96866755 18.1591261,2.98358678 Z"/><path fill="#5DFFC8" d="M18.1486394 4.77108366C18.652758 4.76448893 19.012225 4.39421091 19.0154683 3.87798388 19.0188198 3.34986472 18.6820559 2.99807357 18.1591261 2.98358678 17.619331 2.96866755 17.2279715 3.33937801 17.2274305 3.86587552 17.2269985 4.38956216 17.6221419 4.77789461 18.1486394 4.77108366M21.0645058 10.0956276C20.5597385 10.1055737 20.1877307 10.4855817 20.185012 10.9943491 20.1822171 11.5030084 20.5516302 11.8873407 21.055857 11.9005302 21.5761922 11.9141521 21.997174 11.5136032 22 11.0022411 22.0029038 10.4921764 21.5832194 10.0854652 21.0645058 10.0956276M18.1442609 17.2241552C17.6219797 17.2173442 17.2242416 17.6119471 17.2275931 18.1337958 17.2307283 18.6408335 17.5947359 19.0035438 18.1097737 19.0124088 18.6402713 19.0217063 18.9962787 18.6896994 19.0146575 18.1684993 19.033793 17.6280555 18.6678394 17.2310742 18.1442609 17.2241552"/></g><rect width="24" height="24" opacity="0"/></g></svg>